<svg xmlns="http://www.w3.org/2000/svg" width="219.73" height="197.373" viewBox="0 0 219.73 197.373">
  <g id="Сгруппировать_522" data-name="Сгруппировать 522" transform="translate(-130.332 -1087.948)">
    <g id="Сгруппировать_519" data-name="Сгруппировать 519" transform="translate(130.332 1150.83)">
      <path id="Контур_3590" data-name="Контур 3590" d="M135.057,1284.339l-.184-58.56-.132-7.5,22.9-3.481,13.092,24.781.538-.082-.05-15.747-.142-11,24.512-3.726-.084,7.53.184,58.56.131,7.5-23.113,3.513-13.2-24.559-.537.082.049,15.542.142,10.995-24.188,3.677Z" transform="translate(-131.59 -1185.373)" fill="#fff"/>
      <path id="Контур_3591" data-name="Контур 3591" d="M260.267,1201.237l-.083,7.53.184,58.56.13,7.5-27.306,4.151.085-7.53-.184-58.56-.132-7.5Z" transform="translate(-159.61 -1183.149)" fill="#fff"/>
      <path id="Контур_3592" data-name="Контур 3592" d="M311.59,1236.8l.027,8.645,22.038-3.35.064,20.275-49.238,7.483.085-7.529-.184-58.56-.132-7.5,49.13-7.468.064,20.274-21.93,3.333.026,8.234,19.673-2.99.051,16.158Z" transform="translate(-174.242 -1179.601)" fill="#fff"/>
      <path id="Контур_3593" data-name="Контур 3593" d="M400.44,1199.162l.142,45.078.131,7.5-27.306,4.15.084-7.529-.142-45.079-14.729,2.238-.066-20.995,56.549-8.595.066,20.995Z" transform="translate(-195.44 -1175.929)" fill="#fff"/>
      <path id="Контур_3594" data-name="Контур 3594" d="M138.841,1355.3c-8.441,1.283-8.488-4.5-8.5-8.192l-.009-2.824c-.011-3.719,0-8.925,8.442-10.207s8.517,4.049,8.529,8.215l.007,2.237C147.324,1348.7,147.283,1354.016,138.841,1355.3Zm-1.135-7.828c.005,1.649.007,2.516,1.118,2.347,1.139-.173,1.136-1.04,1.131-2.69l-.016-5.229c-.005-1.622-.008-2.517-1.147-2.344-1.111.169-1.108,1.064-1.1,2.686Z" transform="translate(-130.332 -1220.99)" fill="#fff"/>
      <path id="Контур_3595" data-name="Контур 3595" d="M156.785,1349.746l-.051-15.91-.036-2.037,6.222-.945,3.556,6.733.146-.022-.013-4.278-.039-2.988,6.66-1.012-.023,2.046.05,15.91.036,2.038-6.28.954-3.586-6.673-.146.022.014,4.222.039,2.988-6.573,1Z" transform="translate(-137.854 -1219.679)" fill="#fff"/>
      <path id="Контур_3596" data-name="Контур 3596" d="M188.2,1340.246v.476c.005,1.566.68,2.469,2.111,2.253.993-.151,1.547-.738,1.544-1.549,0-1.286-1.437-1.573-3.308-2.071l-1.258-.34c-2.954-.81-5.206-1.531-5.217-5.083-.013-4,2.871-6.87,8.274-7.691,4.878-.742,8.3.723,8.316,5.2v.475l-6.31.959v-.363c0-1.4-.708-1.963-1.76-1.8-.934.141-1.459.725-1.457,1.369,0,1.034,1.436,1.18,3.191,1.612l1.229.317c3.743.97,5.793,2.281,5.8,5.693.014,4.083-2.871,6.843-8.479,7.695-5.142.781-8.974-.566-8.988-5.432l0-.755Z" transform="translate(-145.042 -1218.758)" fill="#fff"/>
      <path id="Контур_3597" data-name="Контур 3597" d="M211.8,1323.219l8.061-1.225,1.454,6.8.6,3.49.147-.022.572-3.668,1.352-7.227,7.74-1.177-5.4,20.823-8.938,1.359Z" transform="translate(-153.572 -1217.084)" fill="#fff"/>
      <path id="Контур_3598" data-name="Контур 3598" d="M257.284,1316.494l-.023,2.046.037,11.715c.013,4.166-2.724,7.268-8.216,8.1-5.667.861-8.508-1.392-8.522-5.558l-.036-11.716-.036-2.037,7.418-1.128-.022,2.046.034,10.793c0,1.147.3,1.69,1.145,1.561s1.107-.784,1.1-1.9l-.034-10.794-.036-2.037Z" transform="translate(-161.758 -1216.029)" fill="#fff"/>
      <path id="Контур_3599" data-name="Контур 3599" d="M283.564,1312.5l-.023,2.046.036,11.716c.014,4.166-2.724,7.268-8.216,8.1-5.666.861-8.508-1.392-8.521-5.558l-.036-11.716-.036-2.038,7.419-1.127-.023,2.046.034,10.793c0,1.147.3,1.689,1.145,1.561s1.108-.785,1.1-1.9l-.034-10.794-.036-2.036Z" transform="translate(-169.255 -1214.89)" fill="#fff"/>
      <path id="Контур_3600" data-name="Контур 3600" d="M310.619,1313.967a5.017,5.017,0,0,1-3.2,4.851v.056c1.93.1,3.22,1.609,3.227,3.9l.006,1.706c0,1.482.007,2.349.8,3.236l0,.839-7.009,1.065a2.546,2.546,0,0,1-1.031-2.417l-.009-2.908c-.005-1.622-.445-2.226-1.818-2.018l-.7.107.017,5.732.036,2.037-7.418,1.127.021-2.046-.049-15.91-.035-2.037,11.07-1.682c4.148-.63,6.08.921,6.091,4.222Zm-9.745,4.419,1.022-.155c.935-.142,1.429-.693,1.455-1.928,0-1.258-.5-1.547-1.466-1.4l-1.021.156Z" transform="translate(-176.869 -1214.025)" fill="#fff"/>
      <path id="Контур_3601" data-name="Контур 3601" d="M317.82,1306.675l7.36-1.119,1.718,7.489.145-.022,1.7-8.008,5.374-.817,1.777,7.48.145-.023,1.7-8.008,7.068-1.074-5.136,20.784-6.6,1-1.687-6.766-.146.022-1.585,7.263-6.6,1Z" transform="translate(-183.819 -1212.058)" fill="#fff"/>
      <path id="Контур_3602" data-name="Контур 3602" d="M364.075,1312.613l.008,2.349,5.988-.91.017,5.508-13.377,2.033.022-2.046-.05-15.91-.035-2.038L370,1299.571l.017,5.509-5.959.906.007,2.237,5.345-.812.014,4.39Z" transform="translate(-194.896 -1211.202)" fill="#fff"/>
      <path id="Контур_3603" data-name="Контур 3603" d="M395.267,1301.1a5.016,5.016,0,0,1-3.2,4.85v.056c1.929.1,3.22,1.61,3.226,3.9l.006,1.706c0,1.482.007,2.349.8,3.235l0,.839-7.008,1.065a2.546,2.546,0,0,1-1.031-2.417l-.009-2.907c-.005-1.622-.445-2.226-1.818-2.018l-.7.107.018,5.732.035,2.037-7.417,1.127.021-2.045-.05-15.91-.034-2.037,11.069-1.683c4.148-.631,6.081.922,6.091,4.222Zm-9.744,4.418,1.021-.156c.936-.142,1.429-.692,1.455-1.927,0-1.259-.5-1.547-1.465-1.4l-1.022.156Z" transform="translate(-201.018 -1210.355)" fill="#fff"/>
      <path id="Контур_3604" data-name="Контур 3604" d="M422.782,1291.284l-4.09,9.966,4.941,9.907-8.179,1.243-2.8-6.149-.145.021.014,4.53.036,2.038-7.419,1.128.022-2.047-.049-15.91-.036-2.037,7.419-1.128-.022,2.046.013,4.363.146-.022,2.58-6.8Z" transform="translate(-208.713 -1208.838)" fill="#fff"/>
    </g>
    <circle id="Эллипс_7" data-name="Эллипс 7" cx="49.032" cy="49.032" r="49.032" transform="translate(240.178 1087.948)" fill="#231f20"/>
    <g id="Сгруппировать_521" data-name="Сгруппировать 521" transform="translate(252.329 1111.383)">
      <g id="Сгруппировать_520" data-name="Сгруппировать 520">
        <path id="Контур_3605" data-name="Контур 3605" d="M319.706,1130.621l3.4-.517c2.525-.384,4.255.845,4.263,3.083s-1.714,3.991-4.239,4.375l-3.4.517Zm3.358,5.78a3.054,3.054,0,0,0,2.852-2.993c-.005-1.544-1.132-2.386-2.868-2.123l-1.891.288.016,5.114Z" transform="translate(-306.354 -1123.389)" fill="#fff"/>
        <path id="Контур_3606" data-name="Контур 3606" d="M332.113,1128.637a1,1,0,0,1,.888-.935c.512-.078.891.2.893.632a1,1,0,0,1-.888.967A.7.7,0,0,1,332.113,1128.637Zm.194,1.708,1.391-.212.019,5.69-1.392.211Z" transform="translate(-309.893 -1122.72)" fill="#fff"/>
        <path id="Контур_3607" data-name="Контур 3607" d="M340.156,1134.96a2.588,2.588,0,0,1-1.334.588c-1.3.2-2.049-.35-2.053-1.607l-.008-2.738-.98.149,0-1.066.979-.149,0-1.3,1.391-.212,0,1.3,1.592-.242,0,1.066-1.591.242.009,2.706c0,.554.292.808.826.727a1.48,1.48,0,0,0,.779-.352Z" transform="translate(-310.939 -1122.987)" fill="#fff"/>
        <path id="Контур_3608" data-name="Контур 3608" d="M353.639,1129.635l.01,3.26-1.392.211-.01-3.09c0-1.012-.527-1.422-1.417-1.287a1.836,1.836,0,0,0-1.652,1.967l.009,2.878-1.391.211-.025-7.906,1.391-.212.009,2.877a3.178,3.178,0,0,1,1.978-1.026A1.936,1.936,0,0,1,353.639,1129.635Z" transform="translate(-314.36 -1122.143)" fill="#fff"/>
        <path id="Контур_3609" data-name="Контур 3609" d="M363.9,1129.658l-4.663.709c.169.805.894,1.228,1.929,1.071a2.562,2.562,0,0,0,1.611-.864l.749.707a3.625,3.625,0,0,1-2.389,1.291c-1.993.3-3.286-.727-3.291-2.421a3.471,3.471,0,0,1,3.061-3.376,2.4,2.4,0,0,1,3.014,2.484C363.925,1129.367,363.914,1129.528,363.9,1129.658Zm-4.676-.174,3.371-.513a1.346,1.346,0,0,0-1.685-1.13A1.957,1.957,0,0,0,359.228,1129.484Z" transform="translate(-317.235 -1122.447)" fill="#fff"/>
        <path id="Контур_3610" data-name="Контур 3610" d="M373.586,1128.186l-4.662.708c.169.806.894,1.229,1.929,1.071a2.561,2.561,0,0,0,1.612-.864l.748.708a3.626,3.626,0,0,1-2.389,1.291c-1.993.3-3.287-.727-3.292-2.421a3.472,3.472,0,0,1,3.062-3.375,2.4,2.4,0,0,1,3.013,2.484C373.607,1127.895,373.6,1128.056,373.586,1128.186Zm-4.676-.174,3.372-.512a1.346,1.346,0,0,0-1.685-1.13A1.956,1.956,0,0,0,368.91,1128.012Z" transform="translate(-319.997 -1122.027)" fill="#fff"/>
        <path id="Контур_3611" data-name="Контур 3611" d="M379.106,1122.886v.341l1.635-.249,0,1.066-1.591.242.014,4.581-1.391.212-.015-4.581-.979.149,0-1.066.98-.149v-.362a2.242,2.242,0,0,1,2.118-2.294,2.134,2.134,0,0,1,1.258.119l-.386,1.061a1.269,1.269,0,0,0-.768-.117A.946.946,0,0,0,379.106,1122.886Z" transform="translate(-322.636 -1120.736)" fill="#fff"/>
        <path id="Контур_3612" data-name="Контур 3612" d="M386.9,1127.855a2.578,2.578,0,0,1-1.334.587c-1.3.2-2.049-.349-2.053-1.607l-.008-2.738-.979.149,0-1.066.979-.149,0-1.3,1.391-.212,0,1.3,1.592-.242,0,1.066-1.591.242.009,2.706c0,.555.292.808.826.728a1.5,1.5,0,0,0,.778-.352Z" transform="translate(-324.275 -1120.96)" fill="#fff"/>
        <path id="Контур_3613" data-name="Контур 3613" d="M322.534,1151.093l.011,3.26-1.391.212-.01-3.09c0-1.012-.527-1.422-1.417-1.287a1.835,1.835,0,0,0-1.653,1.968l.009,2.877-1.392.211-.018-5.69,1.325-.2,0,.735a3.109,3.109,0,0,1,2.045-1.11A1.935,1.935,0,0,1,322.534,1151.093Z" transform="translate(-305.488 -1128.781)" fill="#fff"/>
        <path id="Контур_3614" data-name="Контур 3614" d="M327.066,1145.411a1,1,0,0,1,.887-.934c.512-.078.892.194.893.631a1,1,0,0,1-.888.967A.7.7,0,0,1,327.066,1145.411Zm.194,1.708,1.391-.212.019,5.69-1.391.212Z" transform="translate(-308.453 -1127.505)" fill="#fff"/>
        <path id="Контур_3615" data-name="Контур 3615" d="M337.217,1149.722l-4.662.708c.169.806.895,1.229,1.929,1.071a2.562,2.562,0,0,0,1.612-.863l.749.707a3.625,3.625,0,0,1-2.39,1.291c-1.992.3-3.286-.727-3.292-2.421a3.473,3.473,0,0,1,3.062-3.375,2.4,2.4,0,0,1,3.013,2.484C337.239,1149.431,337.229,1149.592,337.217,1149.722Zm-4.676-.174,3.372-.513a1.346,1.346,0,0,0-1.685-1.131A1.959,1.959,0,0,0,332.541,1149.548Z" transform="translate(-309.622 -1128.171)" fill="#fff"/>
        <path id="Контур_3616" data-name="Контур 3616" d="M344.791,1150.263a2.593,2.593,0,0,1-1.334.587c-1.3.2-2.049-.35-2.053-1.607l-.009-2.738-.979.149,0-1.066.979-.149,0-1.3,1.391-.212,0,1.3,1.591-.242,0,1.067-1.591.241L342.8,1149c0,.554.292.807.826.727a1.478,1.478,0,0,0,.778-.352Z" transform="translate(-312.261 -1127.353)" fill="#fff"/>
        <path id="Контур_3617" data-name="Контур 3617" d="M347.192,1150.069l.531-1.093a3.8,3.8,0,0,0,2.071.25c.879-.133,1.245-.423,1.244-.818,0-1.087-3.672.494-3.679-1.775,0-1.076,1.006-1.933,2.609-2.176a4.6,4.6,0,0,1,2.227.151l-.531,1.094a3.131,3.131,0,0,0-1.7-.168c-.846.129-1.246.457-1.245.83,0,1.151,3.672-.43,3.679,1.8,0,1.066-1.018,1.914-2.687,2.168A4.506,4.506,0,0,1,347.192,1150.069Z" transform="translate(-314.195 -1127.484)" fill="#fff"/>
        <path id="Контур_3618" data-name="Контур 3618" d="M370.376,1143.571l.011,3.26-1.392.211-.009-3.09c0-1.012-.495-1.428-1.34-1.3a1.778,1.778,0,0,0-1.542,1.938l.009,2.887-1.391.211-.01-3.09c0-1.012-.494-1.427-1.34-1.3a1.773,1.773,0,0,0-1.54,1.94l.009,2.887-1.392.212-.018-5.69,1.324-.2,0,.725a2.966,2.966,0,0,1,1.945-1.084,1.962,1.962,0,0,1,2.006.644,3.352,3.352,0,0,1,2.221-1.286A1.9,1.9,0,0,1,370.376,1143.571Z" transform="translate(-317.972 -1126.633)" fill="#fff"/>
        <path id="Контур_3619" data-name="Контур 3619" d="M382.283,1142.872l-4.662.708c.169.806.894,1.229,1.929,1.071a2.558,2.558,0,0,0,1.612-.863l.748.708a3.619,3.619,0,0,1-2.389,1.29c-1.992.3-3.286-.726-3.291-2.42a3.473,3.473,0,0,1,3.061-3.376,2.4,2.4,0,0,1,3.014,2.484C382.3,1142.581,382.294,1142.742,382.283,1142.872Zm-4.676-.174,3.372-.513a1.346,1.346,0,0,0-1.685-1.13A1.959,1.959,0,0,0,377.606,1142.7Z" transform="translate(-322.479 -1126.217)" fill="#fff"/>
        <path id="Контур_3620" data-name="Контур 3620" d="M389.857,1143.414a2.6,2.6,0,0,1-1.334.586c-1.3.2-2.05-.349-2.053-1.607l-.009-2.738-.979.149,0-1.066.979-.149,0-1.3,1.391-.212,0,1.3,1.592-.241,0,1.066-1.592.241.009,2.706c0,.554.291.808.826.728a1.488,1.488,0,0,0,.778-.353Z" transform="translate(-325.117 -1125.398)" fill="#fff"/>
        <path id="Контур_3621" data-name="Контур 3621" d="M301.024,1173.094l.53-1.094a3.8,3.8,0,0,0,2.071.251c.88-.134,1.246-.425,1.244-.819,0-1.086-3.672.5-3.679-1.775,0-1.076,1.007-1.933,2.609-2.176a4.591,4.591,0,0,1,2.228.151l-.532,1.093a3.128,3.128,0,0,0-1.7-.167c-.846.129-1.245.456-1.244.828,0,1.151,3.673-.43,3.68,1.8,0,1.066-1.018,1.913-2.687,2.167A4.516,4.516,0,0,1,301.024,1173.094Z" transform="translate(-301.024 -1134.053)" fill="#fff"/>
        <path id="Контур_3622" data-name="Контур 3622" d="M309.7,1164.059a1,1,0,0,1,.887-.935c.512-.077.892.2.893.633a1,1,0,0,1-.888.965A.7.7,0,0,1,309.7,1164.059Zm.194,1.708,1.391-.212.018,5.69-1.392.212Z" transform="translate(-303.498 -1132.825)" fill="#fff"/>
        <path id="Контур_3623" data-name="Контур 3623" d="M319.848,1168.369l-4.663.71c.169.8.894,1.228,1.93,1.071a2.563,2.563,0,0,0,1.612-.863l.748.708a3.625,3.625,0,0,1-2.389,1.29c-1.992.3-3.287-.726-3.292-2.42a3.472,3.472,0,0,1,3.061-3.376,2.4,2.4,0,0,1,3.014,2.484C319.869,1168.079,319.859,1168.24,319.848,1168.369Zm-4.676-.174,3.372-.512a1.347,1.347,0,0,0-1.686-1.13A1.958,1.958,0,0,0,315.172,1168.2Z" transform="translate(-304.667 -1133.491)" fill="#fff"/>
        <path id="Контур_3624" data-name="Контур 3624" d="M327.587,1163.851l0,1.267a1.986,1.986,0,0,0-2.041,2.038l.008,2.76-1.391.211-.017-5.69,1.324-.2,0,.831A2.817,2.817,0,0,1,327.587,1163.851Z" transform="translate(-307.621 -1133.036)" fill="#fff"/>
        <path id="Контур_3625" data-name="Контур 3625" d="M336.1,1162.458l-2.531,6.077-1.436.219-2.565-5.3,1.447-.22,1.86,3.939,1.89-4.509Z" transform="translate(-309.167 -1132.639)" fill="#fff"/>
        <path id="Контур_3626" data-name="Контур 3626" d="M345.653,1161.051l.017,5.69-1.324.2,0-.725a2.927,2.927,0,0,1-1.912,1.091c-1.525.232-2.562-.41-2.567-2.126l-.009-3.25,1.39-.212.01,3.069c0,1.033.517,1.447,1.4,1.312a1.817,1.817,0,0,0,1.619-1.962l-.009-2.877Z" transform="translate(-312.102 -1132.237)" fill="#fff"/>
        <path id="Контур_3627" data-name="Контур 3627" d="M356.254,1159.44l.017,5.69-1.324.2v-.725a2.934,2.934,0,0,1-1.912,1.091c-1.524.231-2.561-.411-2.567-2.126l-.01-3.25,1.391-.212.009,3.069c0,1.033.517,1.446,1.4,1.312a1.817,1.817,0,0,0,1.619-1.962l-.009-2.877Z" transform="translate(-315.126 -1131.778)" fill="#fff"/>
        <path id="Контур_3628" data-name="Контур 3628" d="M364.558,1158.232l0,1.267a1.776,1.776,0,0,0-.323.017,1.883,1.883,0,0,0-1.72,2.021l.009,2.76-1.391.211-.018-5.69,1.324-.2,0,.831A2.815,2.815,0,0,1,364.558,1158.232Z" transform="translate(-318.168 -1131.433)" fill="#fff"/>
        <path id="Контур_3629" data-name="Контур 3629" d="M376.814,1156.051l-2.174,6.023-1.336.2-1.547-3.687-1.546,4.157-1.335.2-2.2-5.358,1.313-.2,1.582,3.96,1.622-4.447,1.169-.178,1.616,3.976,1.6-4.464Z" transform="translate(-319.754 -1130.811)" fill="#fff"/>
        <path id="Контур_3630" data-name="Контур 3630" d="M387.346,1158.11l-4.663.708c.169.805.895,1.228,1.93,1.071a2.559,2.559,0,0,0,1.612-.864l.748.708a3.627,3.627,0,0,1-2.389,1.291c-1.992.3-3.287-.727-3.292-2.421a3.472,3.472,0,0,1,3.062-3.375,2.4,2.4,0,0,1,3.013,2.484C387.367,1157.819,387.357,1157.98,387.346,1158.11Zm-4.676-.175,3.372-.512a1.345,1.345,0,0,0-1.685-1.13A1.957,1.957,0,0,0,382.67,1157.935Z" transform="translate(-323.923 -1130.564)" fill="#fff"/>
        <path id="Контур_3631" data-name="Контур 3631" d="M395.085,1153.592l0,1.267a1.814,1.814,0,0,0-.323.017,1.882,1.882,0,0,0-1.719,2.02l.008,2.76-1.391.212-.017-5.69,1.324-.2,0,.831A2.818,2.818,0,0,1,395.085,1153.592Z" transform="translate(-326.877 -1130.109)" fill="#fff"/>
        <path id="Контур_3632" data-name="Контур 3632" d="M400.54,1155.341l-1.031,1.1,0,1.5-1.391.212-.024-7.906,1.391-.212.015,4.774,2.874-3,1.669-.254-2.474,2.764,2.726,2.89-1.692.257Z" transform="translate(-328.717 -1129.094)" fill="#fff"/>
        <path id="Контур_3633" data-name="Контур 3633" d="M320.281,1186a2.588,2.588,0,0,1-1.335.588c-1.3.2-2.05-.35-2.053-1.607l-.009-2.738-.979.149,0-1.066.978-.149,0-1.3,1.392-.212,0,1.3,1.591-.241,0,1.066-1.59.242.009,2.706c0,.554.292.808.826.727a1.482,1.482,0,0,0,.778-.352Z" transform="translate(-305.269 -1137.549)" fill="#fff"/>
        <path id="Контур_3634" data-name="Контур 3634" d="M328.709,1183.03l-4.663.709c.17.806.895,1.229,1.93,1.071a2.556,2.556,0,0,0,1.611-.864l.748.707a3.622,3.622,0,0,1-2.389,1.291c-1.992.3-3.286-.727-3.291-2.421a3.472,3.472,0,0,1,3.062-3.376,2.4,2.4,0,0,1,3.013,2.484C328.73,1182.739,328.719,1182.9,328.709,1183.03Zm-4.676-.174,3.371-.512a1.345,1.345,0,0,0-1.684-1.131A1.96,1.96,0,0,0,324.033,1182.856Z" transform="translate(-307.195 -1137.673)" fill="#fff"/>
        <path id="Контур_3635" data-name="Контур 3635" d="M347.25,1179.1l.011,3.26-1.392.211-.009-3.09c0-1.012-.495-1.428-1.34-1.3a1.779,1.779,0,0,0-1.541,1.939l.009,2.888-1.391.211-.01-3.09c0-1.012-.494-1.427-1.341-1.3a1.773,1.773,0,0,0-1.54,1.94l.009,2.888-1.392.211-.018-5.69,1.324-.2,0,.724a2.968,2.968,0,0,1,1.945-1.083,1.96,1.96,0,0,1,2.005.643,3.355,3.355,0,0,1,2.223-1.286A1.905,1.905,0,0,1,347.25,1179.1Z" transform="translate(-311.375 -1136.769)" fill="#fff"/>
        <path id="Контур_3636" data-name="Контур 3636" d="M358.515,1177.6l.011,3.335-1.313.2,0-.692a2.534,2.534,0,0,1-1.867,1.051c-1.358.207-2.217-.377-2.22-1.368,0-.948.663-1.8,2.464-2.069l1.537-.234v-.086c0-.777-.495-1.161-1.484-1.01a3.507,3.507,0,0,0-1.8.838l-.549-.886a4.956,4.956,0,0,1,2.513-1.086C357.517,1175.332,358.51,1175.959,358.515,1177.6Zm-1.385,1.768,0-.661-1.436.219c-.946.144-1.2.524-1.2.939,0,.48.427.724,1.139.615A1.829,1.829,0,0,0,357.13,1179.367Z" transform="translate(-315.887 -1136.369)" fill="#fff"/>
        <path id="Контур_3637" data-name="Контур 3637" d="M365.581,1176.662l-1.032,1.1,0,1.5-1.391.212-.025-7.906,1.391-.211.016,4.773,2.873-3,1.669-.254-2.474,2.765,2.726,2.89-1.691.257Z" transform="translate(-318.744 -1135.177)" fill="#fff"/>
        <path id="Контур_3638" data-name="Контур 3638" d="M378.087,1175.525l-4.662.708c.169.806.894,1.229,1.929,1.071a2.563,2.563,0,0,0,1.611-.864l.748.708a3.622,3.622,0,0,1-2.389,1.291c-1.993.3-3.286-.727-3.292-2.421a3.472,3.472,0,0,1,3.062-3.376,2.4,2.4,0,0,1,3.013,2.484C378.109,1175.234,378.1,1175.4,378.087,1175.525Zm-4.676-.175,3.371-.512a1.344,1.344,0,0,0-1.684-1.13A1.957,1.957,0,0,0,373.411,1175.35Z" transform="translate(-321.282 -1135.532)" fill="#fff"/>
        <path id="Контур_3639" data-name="Контур 3639" d="M388.248,1173.121l.011,3.26-1.392.211-.009-3.09c0-1.012-.527-1.422-1.418-1.287a1.835,1.835,0,0,0-1.652,1.967l.009,2.877-1.392.212-.018-5.69,1.324-.2,0,.735a3.1,3.1,0,0,1,2.045-1.109A1.935,1.935,0,0,1,388.248,1173.121Z" transform="translate(-324.236 -1135.065)" fill="#fff"/>
      </g>
    </g>
  </g>
</svg>
