<svg xmlns="http://www.w3.org/2000/svg" width="226.377" height="203.344" viewBox="0 0 226.377 203.344">
  <g id="Сгруппировать_518" data-name="Сгруппировать 518" transform="translate(-130.332 -436.471)">
    <g id="Сгруппировать_515" data-name="Сгруппировать 515" transform="translate(130.332 501.254)">
      <path id="Контур_3540" data-name="Контур 3540" d="M135.066,635.139l-.19-60.331-.135-7.724,23.592-3.586,13.488,25.531.554-.084-.052-16.223-.147-11.328,25.254-3.839-.086,7.757.189,60.332.135,7.724-23.813,3.619-13.6-25.3-.554.085.05,16.011.147,11.328L134.98,642.9Z" transform="translate(-131.494 -533.179)" fill="#de4c4c"/>
      <path id="Контур_3541" data-name="Контур 3541" d="M261.093,549.76l-.085,7.757.189,60.332.134,7.723L233.2,629.849l.088-7.758-.19-60.331-.135-7.723Z" transform="translate(-157.391 -531.124)" fill="#de4c4c"/>
      <path id="Контур_3542" data-name="Контур 3542" d="M312.417,586.775l.028,8.906,22.705-3.451.066,20.888-50.728,7.71.088-7.757-.189-60.332-.136-7.723,50.617-7.695.066,20.888-22.594,3.434.027,8.483,20.268-3.08.053,16.647Z" transform="translate(-170.914 -527.845)" fill="#de4c4c"/>
      <path id="Контур_3543" data-name="Контур 3543" d="M401.708,548.387l.146,46.442.135,7.724-28.132,4.275.086-7.757L373.8,552.63l-15.175,2.306-.068-21.63,58.259-8.855.068,21.63Z" transform="translate(-190.505 -524.451)" fill="#de4c4c"/>
      <path id="Контур_3544" data-name="Контур 3544" d="M139.1,704.469c-8.7,1.322-8.745-4.638-8.757-8.44l-.009-2.91c-.012-3.831,0-9.194,8.7-10.516s8.774,4.172,8.787,8.464l.007,2.3C147.839,697.665,147.8,703.147,139.1,704.469ZM137.93,696.4c.005,1.7.007,2.593,1.152,2.418,1.174-.178,1.171-1.071,1.166-2.77l-.017-5.388c-.005-1.671-.008-2.593-1.182-2.415-1.144.174-1.141,1.1-1.135,2.767Z" transform="translate(-130.332 -566.097)" fill="#de4c4c"/>
      <path id="Контур_3545" data-name="Контур 3545" d="M156.788,698.888l-.052-16.392-.037-2.1,6.411-.974,3.664,6.937.15-.022-.013-4.409-.041-3.078,6.861-1.043-.024,2.107.052,16.392.037,2.1-6.47.983-3.695-6.874-.15.023.014,4.349.04,3.079L156.764,701Z" transform="translate(-137.284 -564.885)" fill="#de4c4c"/>
      <path id="Контур_3546" data-name="Контур 3546" d="M188.394,689.2v.49c.005,1.613.7,2.544,2.175,2.32,1.024-.156,1.593-.761,1.591-1.6,0-1.325-1.481-1.62-3.409-2.133l-1.3-.351c-3.043-.834-5.363-1.577-5.375-5.235-.013-4.12,2.958-7.078,8.525-7.925,5.026-.764,8.553.746,8.567,5.355v.49l-6.5.987v-.373c0-1.44-.729-2.022-1.813-1.858-.962.146-1.5.747-1.5,1.41,0,1.065,1.479,1.216,3.287,1.661l1.266.326c3.856,1,5.968,2.351,5.979,5.865.014,4.206-2.958,7.05-8.735,7.928-5.3.8-9.246-.583-9.26-5.6l0-.777Z" transform="translate(-143.927 -564.034)" fill="#de4c4c"/>
      <path id="Контур_3547" data-name="Контур 3547" d="M211.8,671.832l8.305-1.261,1.5,7.006.613,3.6.151-.023.589-3.779,1.392-7.446,7.974-1.213-5.562,21.454-9.208,1.4Z" transform="translate(-151.811 -562.487)" fill="#de4c4c"/>
      <path id="Контур_3548" data-name="Контур 3548" d="M257.792,665.017l-.024,2.107.038,12.071c.013,4.292-2.806,7.488-8.464,8.348-5.838.887-8.765-1.435-8.779-5.727l-.038-12.07-.037-2.1,7.642-1.161-.023,2.108.035,11.12c0,1.181.306,1.741,1.18,1.607s1.141-.807,1.137-1.959l-.035-11.12-.037-2.1Z" transform="translate(-159.376 -561.512)" fill="#de4c4c"/>
      <path id="Контур_3549" data-name="Контур 3549" d="M284.072,661.023l-.024,2.107.038,12.071c.014,4.292-2.806,7.487-8.464,8.347-5.838.888-8.765-1.434-8.779-5.727l-.038-12.07-.037-2.1,7.643-1.161-.024,2.107.035,11.12c0,1.181.306,1.74,1.18,1.607s1.141-.808,1.138-1.96l-.035-11.12-.037-2.1Z" transform="translate(-166.305 -560.459)" fill="#de4c4c"/>
      <path id="Контур_3550" data-name="Контур 3550" d="M311.139,662.625a5.168,5.168,0,0,1-3.3,5v.058c1.988.1,3.317,1.658,3.325,4.02l.006,1.757c0,1.527.007,2.42.823,3.334l0,.864-7.221,1.1a2.624,2.624,0,0,1-1.062-2.49l-.01-3c-.005-1.671-.459-2.294-1.873-2.079l-.722.11.018,5.9.037,2.1-7.643,1.161.022-2.108-.051-16.392-.036-2.1,11.4-1.733c4.273-.65,6.264.949,6.275,4.349Zm-10.04,4.553,1.053-.161c.963-.146,1.473-.714,1.5-1.986,0-1.3-.517-1.594-1.51-1.443l-1.052.161Z" transform="translate(-173.342 -559.66)" fill="#de4c4c"/>
      <path id="Контур_3551" data-name="Контур 3551" d="M317.82,655.321l7.583-1.152,1.77,7.715.15-.023,1.752-8.25,5.536-.842,1.831,7.706.149-.023,1.752-8.251,7.282-1.107-5.291,21.412-6.8,1.034-1.738-6.97-.15.023-1.633,7.483-6.8,1.034Z" transform="translate(-179.765 -557.842)" fill="#de4c4c"/>
      <path id="Контур_3552" data-name="Контур 3552" d="M364.3,661.53l.008,2.42,6.169-.937.018,5.675-13.781,2.094.023-2.107-.052-16.392-.036-2.1,13.751-2.091.018,5.676-6.139.934.007,2.3,5.506-.837.015,4.522Z" transform="translate(-190.002 -557.051)" fill="#de4c4c"/>
      <path id="Контур_3553" data-name="Контур 3553" d="M395.786,649.76a5.167,5.167,0,0,1-3.3,5v.057c1.987.1,3.317,1.658,3.324,4.02l.006,1.758c0,1.526.007,2.42.823,3.333l0,.865-7.221,1.1a2.622,2.622,0,0,1-1.063-2.49l-.009-3c-.005-1.671-.459-2.294-1.873-2.078l-.722.11.018,5.905.036,2.1-7.642,1.161.022-2.108-.052-16.391-.035-2.1,11.4-1.733c4.274-.65,6.265.95,6.275,4.35Zm-10.039,4.553,1.052-.161c.964-.146,1.473-.714,1.5-1.986,0-1.3-.517-1.594-1.509-1.443l-1.053.16Z" transform="translate(-195.66 -556.268)" fill="#de4c4c"/>
      <path id="Контур_3554" data-name="Контур 3554" d="M423.317,639.807,419.1,650.074l5.09,10.207-8.426,1.281-2.881-6.335-.15.023.014,4.666.037,2.1-7.643,1.162.023-2.108-.051-16.392-.037-2.1,7.643-1.162-.023,2.108.013,4.494.15-.022,2.658-7Z" transform="translate(-202.772 -554.865)" fill="#de4c4c"/>
    </g>
    <circle id="Эллипс_6" data-name="Эллипс 6" cx="50.516" cy="50.516" r="50.516" transform="translate(243.501 436.471)"/>
    <g id="Сгруппировать_517" data-name="Сгруппировать 517" transform="translate(255.275 464.296)">
      <g id="Сгруппировать_516" data-name="Сгруппировать 516" transform="translate(0)">
        <path id="Контур_3555" data-name="Контур 3555" d="M318.706,484.161l3.508-.532c2.6-.4,4.384.87,4.391,3.176s-1.766,4.112-4.367,4.508l-3.508.533Zm3.459,5.955a3.146,3.146,0,0,0,2.938-3.082c-.005-1.592-1.166-2.459-2.955-2.187l-1.948.3.016,5.269Z" transform="translate(-304.942 -476.71)" fill="#fff"/>
        <path id="Контур_3556" data-name="Контур 3556" d="M331.113,482.187a1.029,1.029,0,0,1,.914-.962c.528-.081.918.2.92.65a1.034,1.034,0,0,1-.915,1A.724.724,0,0,1,331.113,482.187Zm.2,1.759,1.433-.218.019,5.862-1.434.218Z" transform="translate(-308.213 -476.092)" fill="#fff"/>
        <path id="Контур_3557" data-name="Контур 3557" d="M339.289,488.674a2.658,2.658,0,0,1-1.375.6c-1.34.2-2.111-.36-2.116-1.655l-.008-2.821-1.01.153,0-1.1,1.009-.153,0-1.339,1.433-.218,0,1.339,1.64-.249,0,1.1-1.639.249.009,2.788c0,.571.3.833.85.75a1.537,1.537,0,0,0,.8-.363Z" transform="translate(-309.179 -476.339)" fill="#fff"/>
        <path id="Контур_3558" data-name="Контур 3558" d="M352.816,483.277l.01,3.359-1.434.217-.01-3.183c0-1.043-.543-1.466-1.46-1.326a1.891,1.891,0,0,0-1.7,2.026l.01,2.964-1.433.218-.026-8.145,1.433-.218.01,2.964a3.274,3.274,0,0,1,2.037-1.057A2,2,0,0,1,352.816,483.277Z" transform="translate(-312.341 -475.559)" fill="#fff"/>
        <path id="Контур_3559" data-name="Контур 3559" d="M363.088,483.269l-4.8.73c.174.83.921,1.266,1.987,1.1a2.636,2.636,0,0,0,1.66-.89l.772.728a3.736,3.736,0,0,1-2.462,1.33c-2.053.312-3.386-.749-3.391-2.494A3.575,3.575,0,0,1,360,480.3a2.474,2.474,0,0,1,3.105,2.559C363.109,482.969,363.1,483.135,363.088,483.269Zm-4.818-.179,3.473-.529a1.386,1.386,0,0,0-1.736-1.164A2.014,2.014,0,0,0,358.27,483.09Z" transform="translate(-314.999 -475.84)" fill="#fff"/>
        <path id="Контур_3560" data-name="Контур 3560" d="M372.77,481.8l-4.8.73c.174.83.921,1.266,1.987,1.1a2.635,2.635,0,0,0,1.66-.89l.77.73a3.731,3.731,0,0,1-2.461,1.329c-2.053.312-3.386-.748-3.392-2.493a3.577,3.577,0,0,1,3.155-3.478,2.473,2.473,0,0,1,3.1,2.56C372.791,481.5,372.781,481.664,372.77,481.8Zm-4.818-.18,3.474-.528a1.387,1.387,0,0,0-1.736-1.164A2.017,2.017,0,0,0,367.952,481.617Z" transform="translate(-317.551 -475.452)" fill="#fff"/>
        <path id="Контур_3561" data-name="Контур 3561" d="M378.176,476.474v.351l1.685-.256,0,1.1-1.639.249.015,4.72-1.433.218-.016-4.72-1.009.153,0-1.1,1.01-.153v-.373a2.31,2.31,0,0,1,2.183-2.364,2.186,2.186,0,0,1,1.3.122l-.4,1.092a1.317,1.317,0,0,0-.792-.121A.974.974,0,0,0,378.176,476.474Z" transform="translate(-319.99 -474.259)" fill="#fff"/>
        <path id="Контур_3562" data-name="Контур 3562" d="M386.036,481.568a2.664,2.664,0,0,1-1.375.605c-1.34.2-2.111-.361-2.116-1.655l-.008-2.821-1.009.153,0-1.1,1.009-.153,0-1.339,1.433-.218,0,1.339,1.64-.249,0,1.1-1.639.249.009,2.788c0,.571.3.833.851.749a1.528,1.528,0,0,0,.8-.363Z" transform="translate(-321.504 -474.465)" fill="#fff"/>
        <path id="Контур_3563" data-name="Контур 3563" d="M321.706,503l.011,3.359-1.433.218-.01-3.184c0-1.043-.543-1.465-1.46-1.326a1.891,1.891,0,0,0-1.7,2.027l.01,2.964-1.433.218-.019-5.862,1.365-.208,0,.757a3.2,3.2,0,0,1,2.107-1.144A1.994,1.994,0,0,1,321.706,503Z" transform="translate(-304.141 -481.249)" fill="#fff"/>
        <path id="Контур_3564" data-name="Контур 3564" d="M326.06,497.277a1.03,1.03,0,0,1,.915-.962c.528-.08.918.2.92.65a1.035,1.035,0,0,1-.915,1A.724.724,0,0,1,326.06,497.277Zm.2,1.76,1.434-.218.018,5.862-1.433.218Z" transform="translate(-306.88 -480.07)" fill="#fff"/>
        <path id="Контур_3565" data-name="Контур 3565" d="M336.4,501.648l-4.8.73c.174.83.922,1.266,1.987,1.1a2.64,2.64,0,0,0,1.66-.89l.772.728a3.733,3.733,0,0,1-2.462,1.33c-2.052.312-3.386-.749-3.392-2.494a3.577,3.577,0,0,1,3.155-3.477,2.472,2.472,0,0,1,3.1,2.559C336.417,501.348,336.407,501.515,336.4,501.648Zm-4.818-.179,3.474-.528a1.387,1.387,0,0,0-1.736-1.165A2.018,2.018,0,0,0,331.578,501.469Z" transform="translate(-307.961 -480.686)" fill="#fff"/>
        <path id="Контур_3566" data-name="Контур 3566" d="M343.918,502.293a2.665,2.665,0,0,1-1.374.6c-1.34.2-2.111-.361-2.115-1.656l-.009-2.821-1.009.154,0-1.1,1.009-.154,0-1.339,1.433-.218,0,1.339,1.639-.249,0,1.1-1.639.249.008,2.789c0,.571.3.833.852.75a1.533,1.533,0,0,0,.8-.363Z" transform="translate(-310.4 -479.929)" fill="#fff"/>
        <path id="Контур_3567" data-name="Контур 3567" d="M346.187,502.078l.547-1.126a3.911,3.911,0,0,0,2.133.257c.906-.137,1.283-.436,1.282-.842,0-1.12-3.783.508-3.79-1.83,0-1.108,1.037-1.991,2.688-2.241a4.744,4.744,0,0,1,2.294.155l-.547,1.127a3.225,3.225,0,0,0-1.755-.174c-.872.133-1.283.471-1.283.855,0,1.185,3.783-.443,3.791,1.85,0,1.1-1.049,1.972-2.769,2.233A4.637,4.637,0,0,1,346.187,502.078Z" transform="translate(-312.187 -480.051)" fill="#fff"/>
        <path id="Контур_3568" data-name="Контур 3568" d="M369.672,495.474l.011,3.358-1.434.218-.01-3.183c0-1.043-.51-1.471-1.381-1.339a1.834,1.834,0,0,0-1.588,2l.01,2.975-1.433.218-.01-3.183c0-1.043-.509-1.47-1.381-1.338a1.826,1.826,0,0,0-1.587,2l.01,2.975-1.434.217-.018-5.861,1.364-.208v.747a3.058,3.058,0,0,1,2-1.117,2.022,2.022,0,0,1,2.067.663,3.451,3.451,0,0,1,2.289-1.325A1.963,1.963,0,0,1,369.672,495.474Z" transform="translate(-315.678 -479.264)" fill="#fff"/>
        <path id="Контур_3569" data-name="Контур 3569" d="M381.462,494.8l-4.8.73c.174.83.921,1.266,1.987,1.1a2.636,2.636,0,0,0,1.66-.889l.771.729a3.734,3.734,0,0,1-2.462,1.329c-2.052.312-3.386-.748-3.391-2.493a3.576,3.576,0,0,1,3.154-3.478,2.474,2.474,0,0,1,3.105,2.559C381.483,494.5,381.472,494.664,381.462,494.8Zm-4.818-.179,3.473-.529a1.386,1.386,0,0,0-1.736-1.164A2.017,2.017,0,0,0,376.644,494.619Z" transform="translate(-319.843 -478.88)" fill="#fff"/>
        <path id="Контур_3570" data-name="Контур 3570" d="M388.984,495.443a2.667,2.667,0,0,1-1.374.6c-1.341.2-2.112-.36-2.115-1.655l-.009-2.821-1.009.153,0-1.1,1.009-.153,0-1.339,1.433-.218,0,1.339,1.64-.249,0,1.1-1.64.249.009,2.788c0,.571.3.834.851.75a1.526,1.526,0,0,0,.8-.364Z" transform="translate(-322.282 -478.123)" fill="#fff"/>
        <path id="Контур_3571" data-name="Контур 3571" d="M300.013,523.419l.547-1.127a3.921,3.921,0,0,0,2.134.258c.906-.138,1.283-.437,1.282-.843,0-1.12-3.783.51-3.791-1.829,0-1.109,1.037-1.992,2.688-2.242a4.728,4.728,0,0,1,2.294.156l-.547,1.127a3.219,3.219,0,0,0-1.755-.173c-.872.132-1.283.47-1.282.853,0,1.186,3.783-.442,3.791,1.852,0,1.1-1.049,1.972-2.769,2.233A4.654,4.654,0,0,1,300.013,523.419Z" transform="translate(-300.013 -485.678)" fill="#fff"/>
        <path id="Контур_3572" data-name="Контур 3572" d="M308.685,514.24a1.031,1.031,0,0,1,.915-.963c.528-.08.918.2.92.652a1.034,1.034,0,0,1-.915,1A.724.724,0,0,1,308.685,514.24Zm.2,1.76,1.434-.218.018,5.862-1.433.218Z" transform="translate(-302.299 -484.543)" fill="#fff"/>
        <path id="Контур_3573" data-name="Контур 3573" d="M319.02,518.611l-4.8.73c.174.829.921,1.266,1.987,1.1a2.637,2.637,0,0,0,1.66-.89l.771.729a3.736,3.736,0,0,1-2.462,1.33c-2.052.312-3.386-.749-3.392-2.494a3.577,3.577,0,0,1,3.154-3.478,2.473,2.473,0,0,1,3.1,2.559C319.042,518.312,319.032,518.478,319.02,518.611Zm-4.818-.18,3.474-.527a1.386,1.386,0,0,0-1.736-1.164A2.017,2.017,0,0,0,314.2,518.431Z" transform="translate(-303.38 -485.158)" fill="#fff"/>
        <path id="Контур_3574" data-name="Контур 3574" d="M326.68,514l0,1.306a1.963,1.963,0,0,0-.332.017,1.941,1.941,0,0,0-1.771,2.082l.01,2.843-1.434.218-.018-5.862,1.364-.207,0,.856A2.9,2.9,0,0,1,326.68,514Z" transform="translate(-306.11 -484.738)" fill="#fff"/>
        <path id="Контур_3575" data-name="Контур 3575" d="M335.285,512.612l-2.607,6.26-1.479.225-2.644-5.463,1.49-.226,1.917,4.057,1.947-4.645Z" transform="translate(-307.538 -484.371)" fill="#fff"/>
        <path id="Контур_3576" data-name="Контур 3576" d="M344.818,511.2l.019,5.862-1.364.207,0-.746a3.016,3.016,0,0,1-1.97,1.123c-1.57.239-2.639-.423-2.643-2.19l-.011-3.348,1.432-.218.01,3.162c0,1.064.533,1.49,1.438,1.352a1.873,1.873,0,0,0,1.669-2.021l-.01-2.965Z" transform="translate(-310.251 -484)" fill="#fff"/>
        <path id="Контур_3577" data-name="Контур 3577" d="M355.419,509.593l.018,5.862-1.364.207,0-.747a3.015,3.015,0,0,1-1.97,1.124c-1.57.239-2.638-.423-2.643-2.191l-.01-3.348,1.432-.218.01,3.162c0,1.065.532,1.49,1.439,1.352a1.872,1.872,0,0,0,1.667-2.021l-.009-2.964Z" transform="translate(-313.047 -483.575)" fill="#fff"/>
        <path id="Контур_3578" data-name="Контур 3578" d="M363.652,508.385l0,1.305a1.824,1.824,0,0,0-.333.018,1.939,1.939,0,0,0-1.771,2.082l.009,2.843-1.433.218-.018-5.862,1.364-.208,0,.856A2.9,2.9,0,0,1,363.652,508.385Z" transform="translate(-315.858 -483.256)" fill="#fff"/>
        <path id="Контур_3579" data-name="Контур 3579" d="M376.11,506.2l-2.239,6.205-1.375.209-1.595-3.8-1.592,4.283-1.376.21-2.266-5.52,1.353-.206,1.63,4.079,1.671-4.581,1.2-.183,1.665,4.1,1.648-4.6Z" transform="translate(-317.323 -482.681)" fill="#fff"/>
        <path id="Контур_3580" data-name="Контур 3580" d="M386.519,508.352l-4.8.73c.174.83.922,1.266,1.987,1.1a2.633,2.633,0,0,0,1.66-.89l.771.729a3.736,3.736,0,0,1-2.462,1.33c-2.052.312-3.386-.749-3.392-2.494a3.577,3.577,0,0,1,3.155-3.477,2.473,2.473,0,0,1,3.1,2.559C386.54,508.052,386.53,508.218,386.519,508.352Zm-4.818-.18,3.474-.528a1.385,1.385,0,0,0-1.735-1.164A2.017,2.017,0,0,0,381.7,508.172Z" transform="translate(-321.176 -482.453)" fill="#fff"/>
        <path id="Контур_3581" data-name="Контур 3581" d="M394.178,503.745l0,1.306a1.892,1.892,0,0,0-.333.017,1.94,1.94,0,0,0-1.771,2.081l.01,2.844-1.434.218-.018-5.862,1.364-.208,0,.856A2.906,2.906,0,0,1,394.178,503.745Z" transform="translate(-323.906 -482.033)" fill="#fff"/>
        <path id="Контур_3582" data-name="Контур 3582" d="M399.6,505.655l-1.063,1.13.005,1.547-1.434.218-.026-8.145,1.433-.218.016,4.917,2.96-3.086,1.719-.261-2.548,2.847,2.809,2.978-1.743.264Z" transform="translate(-325.607 -481.095)" fill="#fff"/>
        <path id="Контур_3583" data-name="Контур 3583" d="M319.4,534.665a2.66,2.66,0,0,1-1.374.6c-1.342.2-2.112-.36-2.116-1.655l-.009-2.821-1.008.153,0-1.1,1.008-.153,0-1.339,1.434-.218,0,1.339,1.639-.249,0,1.1-1.639.248.009,2.788c0,.571.3.832.85.749a1.522,1.522,0,0,0,.8-.363Z" transform="translate(-303.934 -488.465)" fill="#fff"/>
        <path id="Контур_3584" data-name="Контур 3584" d="M327.877,531.588l-4.8.73c.175.83.922,1.266,1.988,1.1a2.631,2.631,0,0,0,1.66-.89l.771.729a3.727,3.727,0,0,1-2.462,1.329c-2.052.312-3.386-.748-3.391-2.493a3.577,3.577,0,0,1,3.155-3.478,2.474,2.474,0,0,1,3.1,2.56C327.9,531.288,327.887,531.456,327.877,531.588Zm-4.818-.179,3.473-.528a1.386,1.386,0,0,0-1.735-1.165A2.017,2.017,0,0,0,323.059,531.409Z" transform="translate(-305.715 -488.58)" fill="#fff"/>
        <path id="Контур_3585" data-name="Контур 3585" d="M346.535,527.636l.011,3.359-1.433.218-.01-3.183c0-1.043-.509-1.471-1.381-1.338a1.832,1.832,0,0,0-1.587,2l.009,2.975-1.433.218-.01-3.183c0-1.043-.509-1.47-1.381-1.338a1.827,1.827,0,0,0-1.588,2l.01,2.975-1.433.218-.019-5.862,1.364-.208,0,.747a3.06,3.06,0,0,1,2-1.117,2.021,2.021,0,0,1,2.066.663,3.455,3.455,0,0,1,2.29-1.325A1.962,1.962,0,0,1,346.535,527.636Z" transform="translate(-309.578 -487.744)" fill="#fff"/>
        <path id="Контур_3586" data-name="Контур 3586" d="M357.663,526.132l.01,3.436-1.353.205,0-.714a2.608,2.608,0,0,1-1.923,1.083c-1.4.213-2.283-.388-2.287-1.409,0-.976.683-1.85,2.54-2.132l1.582-.241v-.088c0-.8-.508-1.2-1.529-1.041a3.618,3.618,0,0,0-1.855.864l-.566-.913a5.106,5.106,0,0,1,2.59-1.119C356.634,523.8,357.657,524.442,357.663,526.132Zm-1.428,1.82,0-.68-1.479.225c-.974.148-1.237.54-1.236.968,0,.494.439.745,1.172.634A1.884,1.884,0,0,0,356.235,527.953Z" transform="translate(-313.748 -487.375)" fill="#fff"/>
        <path id="Контур_3587" data-name="Контур 3587" d="M364.639,525.293l-1.063,1.129.005,1.548-1.434.218-.026-8.145,1.434-.218.015,4.918,2.961-3.086,1.719-.261-2.549,2.847,2.808,2.978-1.742.265Z" transform="translate(-316.388 -486.272)" fill="#fff"/>
        <path id="Контур_3588" data-name="Контур 3588" d="M377.255,524.083l-4.8.731c.175.829.921,1.265,1.987,1.1a2.642,2.642,0,0,0,1.66-.89l.771.729a3.73,3.73,0,0,1-2.461,1.329c-2.053.312-3.386-.748-3.391-2.493a3.576,3.576,0,0,1,3.154-3.478,2.474,2.474,0,0,1,3.105,2.559C377.277,523.783,377.266,523.95,377.255,524.083Zm-4.817-.18,3.473-.528a1.385,1.385,0,0,0-1.735-1.164A2.017,2.017,0,0,0,372.438,523.9Z" transform="translate(-318.734 -486.601)" fill="#fff"/>
        <path id="Контур_3589" data-name="Контур 3589" d="M387.41,521.655l.01,3.359-1.433.217-.01-3.183c0-1.043-.543-1.466-1.46-1.326a1.89,1.89,0,0,0-1.7,2.026l.01,2.964-1.433.218-.019-5.862,1.364-.207,0,.757a3.2,3.2,0,0,1,2.107-1.144A1.994,1.994,0,0,1,387.41,521.655Z" transform="translate(-321.464 -486.169)" fill="#fff"/>
      </g>
    </g>
  </g>
</svg>
