<svg xmlns="http://www.w3.org/2000/svg" xmlns:xlink="http://www.w3.org/1999/xlink" width="1920" height="559.155" viewBox="0 0 1920 559.155">
  <defs>
    <clipPath id="clip-path">
      <path id="Контур_1276" data-name="Контур 1276" d="M0,0H559.155V1920H0Z" transform="translate(-3525 9761.346) rotate(90)" fill="#de4c4c"/>
    </clipPath>
    <clipPath id="clip-path-2">
      <rect width="2609" height="760.619" fill="none"/>
    </clipPath>
  </defs>
  <g id="Группа_масок_13" data-name="Группа масок 13" transform="translate(5445 -9761.346)" clip-path="url(#clip-path)">
    <g id="Повторяющаяся_сетка_8" data-name="Повторяющаяся сетка 8" transform="translate(-5935 9695.837)" clip-path="url(#clip-path-2)">
      <g transform="translate(2996.603 -7747.544)">
        <path id="Контур_1275" data-name="Контур 1275" d="M0,0H52.481V1120.063H0Z" transform="matrix(-0.839, -0.545, 0.545, -0.839, -3285.689, 8751.627)" fill="#de4c4c"/>
      </g>
      <g transform="translate(3111.603 -7747.544)">
        <path id="Контур_1275-2" data-name="Контур 1275" d="M0,0H52.481V1120.063H0Z" transform="matrix(-0.839, -0.545, 0.545, -0.839, -3285.689, 8751.627)" fill="#de4c4c"/>
      </g>
      <g transform="translate(3226.603 -7747.544)">
        <path id="Контур_1275-3" data-name="Контур 1275" d="M0,0H52.481V1120.063H0Z" transform="matrix(-0.839, -0.545, 0.545, -0.839, -3285.689, 8751.627)" fill="#de4c4c"/>
      </g>
      <g transform="translate(3341.603 -7747.544)">
        <path id="Контур_1275-4" data-name="Контур 1275" d="M0,0H52.481V1120.063H0Z" transform="matrix(-0.839, -0.545, 0.545, -0.839, -3285.689, 8751.627)" fill="#de4c4c"/>
      </g>
      <g transform="translate(3456.603 -7747.544)">
        <path id="Контур_1275-5" data-name="Контур 1275" d="M0,0H52.481V1120.063H0Z" transform="matrix(-0.839, -0.545, 0.545, -0.839, -3285.689, 8751.627)" fill="#de4c4c"/>
      </g>
      <g transform="translate(3571.603 -7747.544)">
        <path id="Контур_1275-6" data-name="Контур 1275" d="M0,0H52.481V1120.063H0Z" transform="matrix(-0.839, -0.545, 0.545, -0.839, -3285.689, 8751.627)" fill="#de4c4c"/>
      </g>
      <g transform="translate(3686.603 -7747.544)">
        <path id="Контур_1275-7" data-name="Контур 1275" d="M0,0H52.481V1120.063H0Z" transform="matrix(-0.839, -0.545, 0.545, -0.839, -3285.689, 8751.627)" fill="#de4c4c"/>
      </g>
      <g transform="translate(3801.603 -7747.544)">
        <path id="Контур_1275-8" data-name="Контур 1275" d="M0,0H52.481V1120.063H0Z" transform="matrix(-0.839, -0.545, 0.545, -0.839, -3285.689, 8751.627)" fill="#de4c4c"/>
      </g>
      <g transform="translate(3916.603 -7747.544)">
        <path id="Контур_1275-9" data-name="Контур 1275" d="M0,0H52.481V1120.063H0Z" transform="matrix(-0.839, -0.545, 0.545, -0.839, -3285.689, 8751.627)" fill="#de4c4c"/>
      </g>
      <g transform="translate(4031.603 -7747.544)">
        <path id="Контур_1275-10" data-name="Контур 1275" d="M0,0H52.481V1120.063H0Z" transform="matrix(-0.839, -0.545, 0.545, -0.839, -3285.689, 8751.627)" fill="#de4c4c"/>
      </g>
      <g transform="translate(4146.603 -7747.544)">
        <path id="Контур_1275-11" data-name="Контур 1275" d="M0,0H52.481V1120.063H0Z" transform="matrix(-0.839, -0.545, 0.545, -0.839, -3285.689, 8751.627)" fill="#de4c4c"/>
      </g>
      <g transform="translate(4261.603 -7747.544)">
        <path id="Контур_1275-12" data-name="Контур 1275" d="M0,0H52.481V1120.063H0Z" transform="matrix(-0.839, -0.545, 0.545, -0.839, -3285.689, 8751.627)" fill="#de4c4c"/>
      </g>
      <g transform="translate(4376.603 -7747.544)">
        <path id="Контур_1275-13" data-name="Контур 1275" d="M0,0H52.481V1120.063H0Z" transform="matrix(-0.839, -0.545, 0.545, -0.839, -3285.689, 8751.627)" fill="#de4c4c"/>
      </g>
      <g transform="translate(4491.603 -7747.544)">
        <path id="Контур_1275-14" data-name="Контур 1275" d="M0,0H52.481V1120.063H0Z" transform="matrix(-0.839, -0.545, 0.545, -0.839, -3285.689, 8751.627)" fill="#de4c4c"/>
      </g>
      <g transform="translate(4606.603 -7747.544)">
        <path id="Контур_1275-15" data-name="Контур 1275" d="M0,0H52.481V1120.063H0Z" transform="matrix(-0.839, -0.545, 0.545, -0.839, -3285.689, 8751.627)" fill="#de4c4c"/>
      </g>
      <g transform="translate(4721.603 -7747.544)">
        <path id="Контур_1275-16" data-name="Контур 1275" d="M0,0H52.481V1120.063H0Z" transform="matrix(-0.839, -0.545, 0.545, -0.839, -3285.689, 8751.627)" fill="#de4c4c"/>
      </g>
      <g transform="translate(4836.603 -7747.544)">
        <path id="Контур_1275-17" data-name="Контур 1275" d="M0,0H52.481V1120.063H0Z" transform="matrix(-0.839, -0.545, 0.545, -0.839, -3285.689, 8751.627)" fill="#de4c4c"/>
      </g>
      <g transform="translate(4951.603 -7747.544)">
        <path id="Контур_1275-18" data-name="Контур 1275" d="M0,0H52.481V1120.063H0Z" transform="matrix(-0.839, -0.545, 0.545, -0.839, -3285.689, 8751.627)" fill="#de4c4c"/>
      </g>
      <g transform="translate(5066.603 -7747.544)">
        <path id="Контур_1275-19" data-name="Контур 1275" d="M0,0H52.481V1120.063H0Z" transform="matrix(-0.839, -0.545, 0.545, -0.839, -3285.689, 8751.627)" fill="#de4c4c"/>
      </g>
      <g transform="translate(5181.603 -7747.544)">
        <path id="Контур_1275-20" data-name="Контур 1275" d="M0,0H52.481V1120.063H0Z" transform="matrix(-0.839, -0.545, 0.545, -0.839, -3285.689, 8751.627)" fill="#de4c4c"/>
      </g>
      <g transform="translate(5296.603 -7747.544)">
        <path id="Контур_1275-21" data-name="Контур 1275" d="M0,0H52.481V1120.063H0Z" transform="matrix(-0.839, -0.545, 0.545, -0.839, -3285.689, 8751.627)" fill="#de4c4c"/>
      </g>
      <g transform="translate(5411.603 -7747.544)">
        <path id="Контур_1275-22" data-name="Контур 1275" d="M0,0H52.481V1120.063H0Z" transform="matrix(-0.839, -0.545, 0.545, -0.839, -3285.689, 8751.627)" fill="#de4c4c"/>
      </g>
      <g transform="translate(5526.603 -7747.544)">
        <path id="Контур_1275-23" data-name="Контур 1275" d="M0,0H52.481V1120.063H0Z" transform="matrix(-0.839, -0.545, 0.545, -0.839, -3285.689, 8751.627)" fill="#de4c4c"/>
      </g>
    </g>
  </g>
</svg>
