<svg xmlns="http://www.w3.org/2000/svg" width="415.59" height="435.924" viewBox="0 0 415.59 435.924">
  <g id="Сгруппировать_559" data-name="Сгруппировать 559" transform="translate(-1374.204 -762.383)">
    <g id="Сгруппировать_557" data-name="Сгруппировать 557">
      <path id="Объединение_6" data-name="Объединение 6" d="M88.827,83.568,14,103.62,0,51.386,74.831,31.334,67.735,4.85,85.834,0l7.1,26.484L155.353,9.758,207.8,23.7,169.349,61.992,106.926,78.718l67.176,250.7-18.1,4.85Z" transform="translate(1374.204 864.035)" fill="#de4c4c"/>
      <text id="FEITEN" transform="matrix(0.966, -0.259, 0.259, 0.966, 1382.877, 918.405)" fill="#fff" font-size="34" font-family="SegoeUI, Segoe UI"><tspan x="25.443" y="37">FEITEN</tspan></text>
    </g>
    <g id="Сгруппировать_558" data-name="Сгруппировать 558">
      <path id="Объединение_5" data-name="Объединение 5" d="M33.694,329.423l67.175-250.7L38.444,61.993,0,23.7,52.441,9.76l62.424,16.726L121.962,0l18.1,4.851-7.1,26.485L207.8,51.385l-14,52.235L118.968,83.569l-67.176,250.7Z" transform="translate(1581.999 762.383)"/>
      <text id="CIJFERS" transform="matrix(0.966, 0.259, -0.259, 0.966, 1628.726, 778.437)" fill="#fff" font-size="30" font-family="SegoeUI, Segoe UI"><tspan x="26.604" y="32">CIJFERS</tspan></text>
    </g>
  </g>
</svg>
